<svg width="16" height="16" viewBox="0 0 16 16" fill="none" xmlns="http://www.w3.org/2000/svg">
<path d="M2.33233 3.65527C1.31404 3.65527 0.634766 2.8268 0.634766 1.80335C0.634766 0.779904 1.31404 0 2.33233 0C3.35063 0 3.9876 0.779904 4.0299 1.80335C4.0299 2.8268 3.39354 3.65527 2.33233 3.65527Z" fill="white"/>
<path d="M15.3648 16H12.0126C12.0126 16 12.0126 10.1789 12.0126 9.74599C12.0126 9.3131 11.9709 7.82157 10.5461 7.82157C9.28935 7.82157 9.07968 9.21667 9.07968 9.74599C9.07968 10.2753 9.07968 16 9.07968 16H5.72746V4.93564H9.07968V6.42717C9.07968 6.42717 9.75037 4.93564 11.7195 4.93564C13.731 4.93564 15.3648 6.5229 15.3648 9.74599V16Z" fill="white"/>
<path d="M0.634766 4.79198H4.0299V15.9999H0.634766V4.79198Z" fill="white"/>
</svg>
